PathFileType	4	(X/Y/Z)	Run_300 01
DataRate	CameraRate	NumFrames	NumMarkers	Units	OrigDataRate	OrigDataStartFrame	OrigNumFrames
120	120	7	42	mm	120	170	128
Frame#	Time	LASI			RASI			LPSI			RPSI			RTH1			RTH3			LTH1			LTH2			LTH3			RTB1			RTB2			RTB3			LTB1			LTB2			LTB3			RCAL			RTOE			RMT5			LCAL			LTOE			LMT5			LACR			RACR			CLAV			C7			RUA1			RUA2			RUA3			RLEL			RMEL			LUA1			LUA2			LUA3			LLEL			LMEL			RFAsuperior			RFAradius			RFAulna			LFAsuperior			LFAradius			LFAulna			RTH2		
		X1	Y1	Z1	X2	Y2	Z2	X3	Y3	Z3	X4	Y4	Z4	X5	Y5	Z5	X6	Y6	Z6	X7	Y7	Z7	X8	Y8	Z8	X9	Y9	Z9	X10	Y10	Z10	X11	Y11	Z11	X12	Y12	Z12	X13	Y13	Z13	X14	Y14	Z14	X15	Y15	Z15	X16	Y16	Z16	X17	Y17	Z17	X18	Y18	Z18	X19	Y19	Z19	X20	Y20	Z20	X21	Y21	Z21	X22	Y22	Z22	X23	Y23	Z23	X24	Y24	Z24	X25	Y25	Z25	X26	Y26	Z26	X27	Y27	Z27	X28	Y28	Z28	X29	Y29	Z29	X30	Y30	Z30	X31	Y31	Z31	X32	Y32	Z32	X33	Y33	Z33	X34	Y34	Z34	X35	Y35	Z35	X36	Y36	Z36	X37	Y37	Z37	X38	Y38	Z38	X39	Y39	Z39	X40	Y40	Z40	X41	Y41	Z41	X42	Y42	Z42	

170	  1.416667	1075.699464	974.072853	-434.458389	1077.107562	973.151657	-198.044830	909.450161	1013.885460	-365.557917	910.914644	1011.016763	-269.195617	1062.043306	818.494359	-147.406355	1205.695975	635.482122	-179.857669	1004.285413	806.339555	-493.255105	1077.097538	704.770361	-478.804287	1001.692850	579.459532	-451.793282	1196.067420	448.860232	-242.921466	1115.627407	464.626791	-188.160862	1035.346311	366.075039	-245.646893	1000.553014	341.235213	-384.020773	910.171109	281.666728	-423.219885	877.345544	193.664527	-353.328190	847.292574	384.066837	-281.907984	958.255231	204.483396	-274.313625	915.850237	207.758696	-173.133220	703.459176	129.163805	-342.108105	900.847573	 74.349282	-300.641539	885.594396	 40.413558	-408.199807	1095.127095	1441.756342	-527.167938	1061.969075	1452.001142	-158.639667	1146.106768	1397.572236	-308.670165	1038.888416	1487.512291	-355.306877	1009.486864	1384.116094	-117.060810	984.975790	1301.486849	-125.968187	903.483591	1328.741645	-135.786832	834.516659	1238.524930	-109.271796	836.719372	1230.196577	-175.921010	1066.113061	1359.683360	-575.845663	996.395040	1312.008041	-559.927042	1050.869850	1256.392694	-593.639616	980.127532	1159.495630	-624.274619	935.899022	1158.117799	-561.809697	886.648992	1163.198630	-77.313579	949.912482	993.023161	-76.341409	885.523615	974.272581	-93.754223	1062.562082	1161.726494	-599.506444	1204.184893	1185.355848	-476.673805	1206.991154	1118.379361	-478.835939	1210.482097	738.477991	-172.246200	
171	  1.425000	1077.208193	978.415430	-434.948759	1077.748213	980.743852	-198.667311	911.067525	1019.995010	-366.906633	911.275413	1018.058610	-270.293536	1064.676819	827.439527	-146.051625	1210.540556	646.527146	-179.341810	1000.558284	810.872953	-492.501495	1069.520642	707.273490	-476.900422	988.923275	585.028159	-450.877434	1209.841382	455.175302	-242.776420	1127.766358	464.580050	-188.155204	1055.615042	359.596928	-245.581030	981.316572	346.135196	-384.002131	890.555125	287.812897	-423.887219	856.839630	199.371536	-354.270565	867.449023	361.474732	-284.297070	992.550549	191.934444	-273.887515	948.495932	192.230116	-173.314863	682.873169	138.269952	-343.789986	877.057566	 75.218752	-301.055696	860.354935	 40.736573	-408.236996	1098.232340	1450.005915	-525.571096	1058.489787	1459.424305	-158.701439	1145.535247	1405.064502	-306.441541	1039.267583	1494.196014	-355.087723	1004.723306	1393.284406	-117.887753	979.938464	1310.421955	-126.835809	898.867277	1338.175162	-138.928317	828.170113	1249.069808	-113.897418	832.600928	1239.933943	-180.469325	1070.798220	1368.042909	-575.120145	1001.631111	1320.079720	-561.271554	1057.336687	1264.349967	-593.085158	987.959801	1166.282777	-624.578147	942.184730	1165.308188	-563.056606	879.248094	1174.266602	-79.572068	942.471286	1003.700374	-75.453405	879.163513	984.668591	-93.942653	1069.808937	1171.344044	-598.356647	1207.189424	1202.533679	-472.386102	1212.893586	1135.739447	-473.551455	1213.831014	749.740501	-171.678333	
172	  1.433333	1079.289439	983.271215	-435.216530	1078.610397	988.777619	-199.339052	913.281413	1026.689693	-368.590485	911.989742	1025.602135	-271.773224	1067.543525	837.305002	-144.626545	1213.901000	656.980098	-179.100763	997.120296	816.303904	-491.810369	1063.026638	710.757691	-474.688696	977.137899	591.859263	-450.422319	1222.444649	460.920970	-242.375928	1139.061273	463.685563	-188.255734	1076.106643	352.764316	-245.784498	962.768043	352.519496	-383.586235	872.098312	294.969634	-424.755257	837.525258	206.099541	-355.411396	889.344801	338.748433	-286.642748	1027.697269	180.326710	-273.579444	982.215518	177.274152	-173.620796	663.752648	148.524867	-345.421166	853.837768	 75.789353	-301.528072	835.389999	 41.163328	-408.303146	1101.124122	1458.636994	-523.885721	1055.319461	1467.246349	-158.915363	1145.018957	1413.122485	-304.342346	1039.746795	1501.425124	-354.790651	1000.582711	1402.614816	-118.654061	975.600008	1319.407188	-127.976289	894.910208	1347.944131	-141.644099	822.653851	1259.933852	-118.100735	828.779615	1250.095217	-184.538687	1075.052472	1376.961089	-574.269160	1006.371705	1328.781514	-562.306114	1063.197284	1272.934176	-592.419845	994.818064	1173.954363	-624.836445	947.709508	1173.338434	-564.396031	872.929200	1185.599413	-81.927936	935.838914	1014.644804	-75.018398	873.126798	995.411095	-94.092587	1075.998152	1181.525334	-597.340142	1208.967777	1219.697178	-468.514798	1217.289605	1153.147805	-468.565609	1216.586219	760.213943	-171.285305	
173	  1.441667	1081.861133	988.502431	-435.272973	1079.589642	997.164183	-199.965142	915.982919	1033.808242	-370.514940	913.321234	1033.398164	-273.530942	1070.569218	847.939886	-143.139713	1215.685975	666.601478	-179.122484	994.452319	822.451949	-491.287799	1057.499978	714.944520	-472.274542	966.311011	599.601392	-450.313613	1233.899957	466.030691	-241.722357	1149.811766	461.985395	-188.230745	1096.937204	345.753958	-246.112136	945.173003	360.019950	-383.307160	854.832772	302.942883	-425.941744	819.669447	213.587200	-356.812897	912.859112	316.428725	-288.627955	1063.498648	169.815228	-273.609446	1016.997984	162.960869	-174.239799	646.360044	159.809744	-346.963023	831.148933	 76.045528	-301.876752	810.751642	 41.715623	-408.393342	1103.901170	1467.470999	-522.176201	1052.527268	1475.268840	-159.150851	1144.539099	1421.506758	-302.363333	1040.274266	1508.946619	-354.395574	997.019037	1411.924967	-119.352588	971.843967	1328.400535	-129.250482	891.558051	1357.883388	-143.998194	817.891519	1270.916783	-121.871305	825.218276	1260.599006	-188.193018	1078.984858	1386.172705	-573.312668	1010.493853	1337.912980	-563.153479	1068.416626	1281.965960	-591.753248	1000.744296	1182.313124	-625.087189	952.395411	1181.952757	-565.752132	867.494476	1196.953712	-84.261363	929.992556	1025.626318	-74.988534	867.444936	1006.351415	-94.308390	1081.236638	1192.077019	-596.499791	1209.719168	1236.505210	-465.044982	1220.355409	1170.253322	-463.973230	1218.656723	769.649473	-171.070670	
174	  1.450000	1084.822728	993.924280	-435.091613	1080.582379	1005.829564	-200.455404	919.046840	1041.148200	-372.592199	915.211758	1041.292816	-275.489406	1073.599445	859.060392	-141.651696	1215.878491	675.163930	-179.422884	992.824885	829.027601	-490.940960	1052.717277	719.577466	-469.853305	956.489168	607.872773	-450.617344	1244.263030	470.524230	-240.949139	1160.262048	459.588383	-187.889686	1118.026391	338.811169	-246.357069	928.778163	368.256863	-383.661634	838.744155	311.533060	-427.476696	803.415055	221.552395	-358.578298	937.771843	294.931411	-289.981178	1099.604626	160.483482	-274.259300	1052.829985	149.386165	-175.376195	630.853465	172.009140	-348.461049	808.898493	 76.148074	-302.120528	786.441741	 42.503798	-408.516443	1106.612001	1476.346825	-520.478381	1050.147395	1483.291612	-159.297387	1144.101855	1429.960052	-300.470536	1040.815634	1516.507313	-353.873893	993.956739	1421.122648	-119.971216	968.567030	1337.379016	-130.463453	888.730393	1367.827906	-146.059492	813.783965	1281.819720	-125.245512	821.920151	1271.370470	-191.546637	1082.662224	1395.471284	-572.315597	1014.021704	1347.320430	-563.790985	1072.980004	1291.271827	-591.190165	1005.824757	1191.161311	-625.395522	956.217535	1190.958908	-567.093604	862.768721	1208.148963	-86.496238	924.915455	1036.470083	-75.266632	862.318245	1017.250909	-94.685952	1085.639551	1202.807283	-595.856799	1209.651496	1252.693027	-461.925374	1222.317978	1186.782210	-459.756133	1219.821767	777.912477	-171.005264	
175	  1.458333	1088.067119	999.352569	-434.649266	1081.546823	1014.659193	-200.784419	922.390345	1048.495898	-374.758051	917.326426	1049.239210	-277.567623	1076.461913	870.293381	-140.305002	1214.571301	682.502285	-179.993453	992.252533	835.739127	-490.787138	1048.432317	724.480355	-467.634723	947.700324	616.377277	-451.433748	1253.607222	474.409775	-240.242113	1170.551681	456.569015	-187.176287	1139.217894	332.149330	-246.381197	913.644638	376.929403	-384.776319	823.754759	320.550137	-429.278574	788.721190	229.777439	-360.749050	963.840429	274.504987	-290.504846	1135.640173	152.426878	-275.760557	1089.637819	136.717039	-177.183873	617.266456	185.027041	-350.037614	787.086916	 76.487020	-302.401828	762.496980	 43.779079	-408.702070	1109.239771	1485.097919	-518.799039	1048.174830	1491.106861	-159.340235	1143.736299	1438.233748	-298.644324	1041.369247	1523.900926	-353.218507	991.336777	1430.148018	-120.493346	965.710288	1346.273517	-131.440270	886.349649	1377.625441	-147.878972	810.246200	1292.457863	-128.256633	818.928882	1282.263155	-194.666988	1086.100381	1404.718745	-571.387910	1017.086094	1356.864565	-564.122985	1076.886388	1300.692848	-590.798032	1010.148563	1200.282925	-625.819974	959.276918	1200.177092	-568.450352	858.636907	1219.033044	-88.592303	920.576785	1047.041338	-75.748374	857.967914	1027.801024	-95.297120	1089.306581	1213.495780	-595.401735	1208.962239	1268.042883	-459.088380	1223.403925	1202.504718	-455.861210	1219.849722	784.947131	-171.060462	
176	  1.466667	1091.494330	1004.675621	-434.003411	1082.540580	1023.456690	-201.015269	925.950674	1055.667457	-376.962375	919.340121	1057.204979	-279.652069	1079.037953	881.243820	-139.313672	1211.958448	688.555509	-180.756618	992.541884	842.384773	-490.918667	1044.470140	729.566370	-465.744536	939.873616	624.992429	-452.683109	1262.016321	477.674770	-239.713666	1180.755144	452.975113	-186.155145	1160.366745	325.939971	-246.175415	899.664619	385.863465	-386.402719	809.761950	329.852329	-431.200220	775.406955	238.160762	-363.216754	990.816724	255.279112	-290.112474	1171.300323	145.826621	-278.178339	1127.212080	125.176027	-179.729681	605.541342	198.780360	-351.844631	765.878078	 77.596641	-302.840821	739.089566	 45.927131	-408.998059	1111.722363	1493.551925	-517.120370	1046.573559	1498.511421	-159.357257	1143.462814	1446.106224	-296.896333	1041.949419	1530.968515	-352.456688	989.129356	1438.912006	-120.911099	963.234218	1354.960259	-132.083873	884.354073	1387.150165	-149.477220	807.211624	1302.673453	-130.912485	816.322932	1293.013667	-197.527932	1089.274033	1413.818191	-570.612405	1019.830878	1366.390361	-564.097901	1080.160548	1310.086349	-590.596180	1013.792422	1209.436099	-626.380679	961.766618	1209.408900	-569.885568	855.030634	1229.461567	-90.531506	916.921670	1057.219609	-76.360987	854.503847	1037.747567	-96.182368	1092.324724	1223.902021	-595.095929	1207.849281	1282.355906	-456.502499	1223.794749	1217.217273	-452.280448	1218.645218	790.747456	-171.201993	
